<mxfile host="app.diagrams.net" modified="2023-04-13T05:44:05.772Z" agent="Mozilla/5.0 (Macintosh; Intel Mac OS X 10_15_7) AppleWebKit/537.36 (KHTML, like Gecko) Chrome/111.0.0.0 Safari/537.36" version="21.1.6" etag="lPEPv5l0UBuW0_Dy9zA7" type="github">
  <diagram name="第 1 页" id="iZRDmUwz6K4UGWeJhC3Z">
    <mxGraphModel>
      <root>
        <mxCell id="0" />
        <mxCell id="1" parent="0" />
      </root>
    </mxGraphModel>
  </diagram>
</mxfile>
